# xmcd
#
# Track frame offsets: 
#        150
#        15984
#        31771
#        44719
#        58114
#        71019
#        86858
#        100351
#        117577
#        139435
#        152589
#        164044
#        174135
#        187305
#        198426
#        212470
#        223996
#        233649
#
# Disc length: 3269 seconds
#
# Revision: 0
# Processed by: cddbd v1.5.2PL0 Copyright (c) Steve Scherf et al.
# Submitted via: ExactAudioCopy v1.0b3
#
DISCID=0f0cc312
DTITLE=歌星 - 中华歌典80年代　改革开放的时代 2CD-1
DYEAR=1900
DGENRE=Country
TTITLE0=董文华 - 十五的月亮
TTITLE1=朱明瑛 - 大海啊，故乡
TTITLE2=蒋大为 - 驼铃
TTITLE3=苏小明 - 军港之夜
TTITLE4=殷秀梅 - 我爱你，塞北的雪
TTITLE5=蒋大为 - 在那桃花盛开的地方
TTITLE6=一支难忘的歌
TTITLE7=蒋大为 - 敢问路在何方
TTITLE8=那就是我
TTITLE9=彭丽媛 - 在希望的田野上
TTITLE10=蒋大为 - 牡丹之歌
TTITLE11=张振富、耿莲凤 - 年轻的朋友来相会
TTITLE12=殷秀梅 - 长江之歌
TTITLE13=小草
TTITLE14=张明敏 - 我的中国心
TTITLE15=军营男子汉
TTITLE16=沈小岑 - 请到天涯海角来
TTITLE17=殷秀梅 - 妈妈教我一支歌
EXTD=
EXTT0=
EXTT1=
EXTT2=
EXTT3=
EXTT4=
EXTT5=
EXTT6=
EXTT7=
EXTT8=
EXTT9=
EXTT10=
EXTT11=
EXTT12=
EXTT13=
EXTT14=
EXTT15=
EXTT16=
EXTT17=
PLAYORDER=
